<svg viewBox="-16 0 288 256" width="100%" height="100%"
  xmlns="http://www.w3.org/2000/svg"
  xmlns:xlink="http://www.w3.org/1999/xlink">


<path fill="#fff" d="M29 8h198v168c0 21-41 72-99 72s-99-52-99-72V8Z"/>
<path d="M29 0c-4 0-8 4-8 8v169c0 6 4 17 12 28 17 24 51 51 95 51s78-27 95-50c8-12 12-22 12-29V8c0-4-4-8-8-8H29Zm8 16h182v161c0 6-6 17-16 28-16 18-43 35-75 35s-59-18-75-35c-10-11-16-22-16-28V16Z"/>
<path stroke="#000" stroke-width="12" d="M128 8h99v116h-99zM29 124h99v122c-65-7-99-70-99-70v-52Z"/>

</svg>