<svg viewBox="-16 0 288 256" width="100%" height="100%"
  xmlns="http://www.w3.org/2000/svg"
  xmlns:xlink="http://www.w3.org/1999/xlink">


<g transform="translate(-16 0)">
<path d="m68 248-21-12s16-68 76-93c61-25-42-5-55 105Z" fill="#078f36" stroke="black" stroke-width="6"/>
<path d="M164 105c6 1 29-51 70-50 22-1 21 12 23 48 3 12 33 16 1 51-48 11-63-11-94-11 7 8 42 41 55 50 13 8 2 45-51 35-15 4-46 37-61-9-4-45 29-41 16-76-27-10-57 15-66 28-10 3-44 12-32-53 0-30 0-74 48-53 14 7 34 34 47 39-6-10-16-34-42-60-13-20 14-35 44-27 14-2 49-36 60 16 3 40 2 11-18 72Z" fill="#078f36" stroke="black" stroke-width="6"/>
</g>

</svg>