<svg viewBox="-16 0 288 256" width="100%" height="100%"
  xmlns="http://www.w3.org/2000/svg"
  xmlns:xlink="http://www.w3.org/1999/xlink">


<line x1="128" y1="0" x2="128" y2="256" stroke="black" stroke-width="48"/>
<line x1="0" y1="128" x2="256" y2="128" stroke="black" stroke-width="48"/>
<line x1="36" y1="36" x2="220" y2="220" stroke="black" stroke-width="48"/>
<line x1="36" y1="220" x2="220" y2="36" stroke="black" stroke-width="48"/>
<circle cx="128" cy="128" r="104" fill="white" stroke="black" stroke-width="8"/>
<g transform="scale(0.8) translate(32,32)">
<g transform="translate(-16 0)">
<path d="m17 40 3 17 27 14 9-8 76 29 7 8 73 35 3 12 11 3 53 33-22 28-51-52-1 31-17-1-1-30-14-16-6-2-42-23-10-2L7 57l10-17Z"/>
<path fill="none" stroke="black" stroke-width="20" d="M101 167c44-15 46-24 57-39"/>
<path fill="white" d="m57 70 16 6v6l-18-7 2-5Z"/>
</g>
</g>

</svg>