<svg viewBox="-16 0 288 256" width="100%" height="100%"
  xmlns="http://www.w3.org/2000/svg"
  xmlns:xlink="http://www.w3.org/1999/xlink">


<line x1="128" y1="0" x2="128" y2="256" stroke="black" stroke-width="48"/>
<line x1="0" y1="128" x2="256" y2="128" stroke="black" stroke-width="48"/>
<line x1="36" y1="36" x2="220" y2="220" stroke="black" stroke-width="48"/>
<line x1="36" y1="220" x2="220" y2="36" stroke="black" stroke-width="48"/>
<circle cx="128" cy="128" r="104" fill="white" stroke="black" stroke-width="8"/>
<g transform="scale(0.64) translate(76 88)">
<path d="m133 3 24 43 49-46-11 70 51-24-37 57 43 43-56 3 26 75-65-48-31 80-20-86-65 53 30-74-51-3 41-33L4 97l75-17L36 0l89 60 8-57Z"/>
</g>

</svg>