<svg viewBox="-16 0 288 256" width="100%" height="100%"
  xmlns="http://www.w3.org/2000/svg"
  xmlns:xlink="http://www.w3.org/1999/xlink">


<line x1="128" y1="0" x2="128" y2="256" stroke="black" stroke-width="48"/>
<line x1="0" y1="128" x2="256" y2="128" stroke="black" stroke-width="48"/>
<line x1="36" y1="36" x2="220" y2="220" stroke="black" stroke-width="48"/>
<line x1="36" y1="220" x2="220" y2="36" stroke="black" stroke-width="48"/>
<circle cx="128" cy="128" r="104" fill="white" stroke="black" stroke-width="8"/>
<g transform="scale(0.8) translate(32,32)">
<g transform="translate(-16 0)">
<path d="M95 89c-1-2-19-45-3-53 5-3-3 24 31 35l37 62 15-9h4c1 2 1 4-1 5l-18 12c0 2 1 5 3 7 31 24 40 60 40 60s16 2 10 7l-10 9-12 5c-8 4-3-11-3-11s-29-24-39-61c0-3-3-5-5-6l-19 12h-4c-1-2-1-4 1-5l15-10-42-59Z"/>
</g>
</g>

</svg>