<svg viewBox="-16 0 288 256" width="100%" height="100%"
  xmlns="http://www.w3.org/2000/svg"
  xmlns:xlink="http://www.w3.org/1999/xlink">


<circle cx="128" cy="128" r="128" fill="white"/>
<g transform="translate(-16 0)">
<path d="m125 26 26 22-22 28-27-15 23-35Zm34 27 18 16-24 31v-8l-17-12 23-27Zm24 21 22 18-39 45-22-12 39-51Zm29 24 19 17-44 37-13-10 38-44Z" fill="black"/>
<path d="M143 92 93 68l-41 57 60 101h72s20 0 35-91c-28 22-36 30-36 30s-19-30-80-39c-9-1-1-20 8-20 20 0 34 3 32-14Z" fill="black"/>
</g>
<line x1="40" y1="216" x2="216" y2="40" stroke="#E4091C" stroke-width="36"/>
<circle cx="128" cy="128" r="124" fill="none" stroke="black" stroke-width="8"/>

</svg>