<svg viewBox="-16 0 288 256" width="100%" height="100%"
  xmlns="http://www.w3.org/2000/svg"
  xmlns:xlink="http://www.w3.org/1999/xlink">


<circle cx="128" cy="128" r="124" fill="white" stroke="black" stroke-width="8"/>
<g transform="translate(-16 0)">
<path d="m17 40 3 17 27 14 9-8 76 29 7 8 73 35 3 12 11 3 53 33-22 28-51-52-1 31-17-1-1-30-14-16-6-2-42-23-10-2L7 57l10-17Z"/>
<path fill="none" stroke="black" stroke-width="20" d="M101 167c44-15 46-24 57-39"/>
<path fill="white" d="m57 70 16 6v6l-18-7 2-5Z"/>
</g>

</svg>