<svg viewBox="-16 0 288 256" width="100%" height="100%"
  xmlns="http://www.w3.org/2000/svg"
  xmlns:xlink="http://www.w3.org/1999/xlink">


<rect x="0" y="0" width="128" height="128"/>
<rect x="128" y="128" width="128" height="128"/>
<circle cx="128" cy="128" r="124" fill="#FDE64C" stroke="black" stroke-width="8"/>
<g transform="translate(-16 0)">
<ellipse cx="76" cy="87" fill="none" stroke="black" stroke-width="10" rx="28" ry="27"/>
<path fill="black" d="m127 83-2 16h60l-7-37h13l-1-16s1-5-5-5h-59L95 67l9 16m-17-7s-20 37-19 92c0 3 10 10 13 0 0-15-2-65 21-71L87 76Zm91 105c-2 11-5 19-9 26-2 5-5 8-8 10a53 53 0 0 1-12 0c-3-2-6-5-9-10l-9-26h47Zm-55 0a99 99 0 0 0 12 33c-14-6-26-18-34-33h22Zm63 0h21c-7 15-18 26-32 32l1-2c4-7 8-18 10-30Zm-65-37a178 178 0 0 0 1 29H98a77 77 0 0 1-4-29h27Zm60 0a170 170 0 0 1-2 29h-49a162 162 0 0 1-1-29h52Zm8 0h25a79 79 0 0 1-4 29h-22a170 170 0 0 0 1-29Zm-62-37c-3 9-5 19-6 30H95c2-11 6-22 12-30h20Zm47 0c3 8 5 19 6 30h-51c1-11 3-22 6-30h39Zm9 0h18c6 8 10 19 12 30h-25l-5-30Z"/>
</g>

</svg>