<svg viewBox="-16 0 288 256" fill-rule="evenodd" width="100%" height="100%"
  xmlns="http://www.w3.org/2000/svg"
  xmlns:xlink="http://www.w3.org/1999/xlink">


<g transform="translate(-16 0)">
<circle cx="128" cy="128" r="128" fill="#DE4444"/>
<g transform="scale(0.75) translate(88,48)">
<path d="m111 0-1 1c-3 1-6 4-11 11l-5 6-3 3-2 1h-6l-11-4c-4-1-12 3-25 16-5 5-8 6-13 6-8 1-15-5-16-12v-2l-3 4C4 48 15 77 31 69c3-2 4-2 15-13l11-11 4-1h4l11 5 3 3h1l3-1 11-6 10-4h2c4 0 9 4 17 16l8 11 5-1c14-4 17-5 22-4 9 2 14 10 15 21 1 7-3 13-12 19l-2 2 5 6c9 10 12 17 14 26v2l1-1c6-15 10-38 8-50-2-14-10-32-15-35-4-3-7-7-13-18-5-9-7-11-14-14l-9-4-5-2-3-3-6-5c-4-4-7-6-10-6l-1-1M61 52 50 62 39 74l-11 4h-1l-3 4C0 115-6 159 7 198c9 31 31 53 55 57 24 5 57-15 80-49l3-4 3 1c18 0 28-20 16-33l-1-6 3 1 2 1v-1l-6-14-6-11-4-4c-6-7-7-9-4-11 3-3 11 5 16 15l2 3c-3-7-5-10-12-20-7-9-7-8-7-10s1-3 3-3c4-1 17 17 21 29 1 3 1 3 1 0-2-9-6-15-16-25l-8-10c0-2 1-3 4-5 12-6 14-22 2-26l-2-1-7 1-11 1-4 1h-2c-4-1-7-3-8-6-8-13-15-15-32-11-8 3-10 3-17-2-6-4-7-4-10-4M9 70c-1 2-2 4-2 9l2 11 9-14-8-6H9m32 4-15 8-2 4 4 4 8 1h6l2-1c3-1 3 0 3-3 3-8 0-14-6-13m64 5c-3 2-8 7-8 11-1 2 1 4 7 8l7 6c13 11 16 0 4-17-4-7-7-8-10-8m-75 24c-11 4-12 30-1 30 5 0 9-4 10-13 2-11-2-20-9-17m35 5c-2 1-3 2-8 11l-4 6-7 8c-9 11-9 11-9 14v2l6 15 3 2c5 3 6 3 10 0s4-4 0-12l-3-5v-1l4-7 9-16 5-9v-4l-1-3-1-1h-4m34 3c-5 2-9 9-9 18 0 10 4 15 11 12 8-4 10-23 2-28l-4-2m48 27c-3 1-3 5 2 9l5 6c5 8 6 9 7 7 2-2 2-4-2-11l-1-2-4-4c-4-5-5-5-7-5m-1 15-2 2v1l1 2 4 6 2 4 4-4-1-4-1-3-2-2c-3-3-3-4-5-2M11 164l-3 13-2 13 2 1c3 1 3 1 5-1l2-2 1 2c19 22 40 25 72 10l2-1 1 5c2 5 3 6 5 7h1l2-2 3-3h-1l-11-36-3-1h-1l-1 1c-3 1-3 2-2 8l-1 3-32 3c-7-1-12-2-26-9-7-3-7-3-6-4v-5l-1-2h-6m24 47c-4 1-6 4-3 7 4 6 9 9 15 10 8 0 11-3 11-9-1-3-4-6-6-6l-16-3-1 1" fill="#fbe334"/>
</g>
</g>

</svg>